<mxfile host="app.diagrams.net" modified="2021-10-18T15:25:49.311Z" agent="5.0 (Macintosh; Intel Mac OS X 10_15_7) AppleWebKit/605.1.15 (KHTML, like Gecko) Version/15.1 Safari/605.1.15" etag="V57e9EvJB1j6jOanOVUM" version="15.5.5" type="github">
  <diagram id="ZjEa8aeVQIMq6uV5Kkjf" name="Page-1">
    <mxGraphModel dx="2066" dy="1154" grid="1" gridSize="10" guides="1" tooltips="1" connect="1" arrows="1" fold="1" page="1" pageScale="1" pageWidth="827" pageHeight="1169" math="0" shadow="0">
      <root>
        <mxCell id="0" />
        <mxCell id="1" parent="0" />
        <mxCell id="2RMUzIupH8DCGvt_PLBL-3" value="" style="edgeStyle=orthogonalEdgeStyle;rounded=0;orthogonalLoop=1;jettySize=auto;html=1;" parent="1" source="2RMUzIupH8DCGvt_PLBL-1" target="2RMUzIupH8DCGvt_PLBL-2" edge="1">
          <mxGeometry relative="1" as="geometry" />
        </mxCell>
        <mxCell id="2RMUzIupH8DCGvt_PLBL-1" value="sdfg" style="rounded=0;whiteSpace=wrap;html=1;rotation=15;" parent="1" vertex="1">
          <mxGeometry x="160" y="760" width="120" height="60" as="geometry" />
        </mxCell>
        <mxCell id="2RMUzIupH8DCGvt_PLBL-5" value="" style="edgeStyle=orthogonalEdgeStyle;rounded=0;orthogonalLoop=1;jettySize=auto;html=1;" parent="1" source="2RMUzIupH8DCGvt_PLBL-2" target="2RMUzIupH8DCGvt_PLBL-4" edge="1">
          <mxGeometry relative="1" as="geometry" />
        </mxCell>
        <mxCell id="2RMUzIupH8DCGvt_PLBL-2" value="" style="rounded=0;whiteSpace=wrap;html=1;" parent="1" vertex="1">
          <mxGeometry x="100" y="600" width="120" height="60" as="geometry" />
        </mxCell>
        <mxCell id="2RMUzIupH8DCGvt_PLBL-4" value="" style="ellipse;whiteSpace=wrap;html=1;rounded=0;" parent="1" vertex="1">
          <mxGeometry x="300" y="600" width="120" height="60" as="geometry" />
        </mxCell>
        <mxCell id="GpfphIOS3NCAoXyDABzW-1" value="" style="shape=manualInput;whiteSpace=wrap;html=1;size=27;" parent="1" vertex="1">
          <mxGeometry x="350" y="480" width="80" height="80" as="geometry" />
        </mxCell>
      </root>
    </mxGraphModel>
  </diagram>
</mxfile>
